<svg width="1440" height="30" viewBox="0 0 1440 30" fill="none" xmlns="http://www.w3.org/2000/svg">
<path d="M32.4285 18.1223C31.2285 18.492 30.0699 18.9558 28.9644 19.507C27.4329 15.287 23.3755 12.2717 18.6104 12.2717C13.7806 12.2717 9.67683 15.3679 8.19342 19.677C7.0846 19.1357 5.92274 18.6835 4.71613 18.3286C6.73985 12.6348 12.1961 8.55835 18.6088 8.55835C24.9451 8.56 30.3434 12.5391 32.4285 18.1223Z" fill="white"/>
<path d="M40.2316 17.1073C39.9332 17.0941 39.6349 17.0892 39.3332 17.0892C38.2775 17.0892 37.2349 17.1585 36.2173 17.2971C33.7311 9.99085 26.7881 4.72942 18.6103 4.72942C10.3414 4.72942 3.32876 10.108 0.922166 17.5447H0.920508C0.010576 17.4341 -0.915931 17.378 -1.8557 17.378C-2.27171 17.378 -2.68441 17.3895 -3.09546 17.411C-0.521461 7.87506 8.22151 0.855957 18.6103 0.855957C28.8881 0.855957 37.5548 7.72652 40.2316 17.1073Z" fill="white"/>
<path d="M25.424 21.6837C22.7307 23.6922 20.5081 26.2751 18.9468 29.2425H18.2291C16.6413 26.3114 14.4104 23.7698 11.7203 21.7993C12.3087 18.5595 15.1579 16.1005 18.5821 16.1005C21.9666 16.1021 24.7876 18.5018 25.424 21.6837Z" fill="white"/>
<path d="M78.7436 18.1222C77.5436 18.4919 76.385 18.9557 75.2795 19.5069C73.7481 15.2869 69.6907 12.2716 64.9255 12.2716C60.0958 12.2716 55.992 15.3677 54.5085 19.6769C53.3997 19.1356 52.2379 18.6834 51.0312 18.3285C53.055 12.6347 58.5113 8.55823 64.9239 8.55823C71.2603 8.55988 76.6585 12.539 78.7436 18.1222Z" fill="white"/>
<path d="M86.5467 17.1072C86.2484 17.094 85.95 17.0891 85.6484 17.0891C84.5926 17.0891 83.5501 17.1584 82.5324 17.297C80.0462 9.99073 73.1032 4.7293 64.9254 4.7293C56.6565 4.7293 49.6439 10.1079 47.2373 17.5446H47.2356C46.3257 17.434 45.3992 17.3779 44.4594 17.3779C44.0434 17.3779 43.6307 17.3894 43.2197 17.4109C45.7937 7.87493 54.5366 0.855835 64.9254 0.855835C75.2032 0.855835 83.8699 7.7264 86.5467 17.1072Z" fill="white"/>
<path d="M71.7391 21.6836C69.0458 23.6921 66.8232 26.275 65.2619 29.2424H64.5442C62.9564 26.3113 60.7255 23.7697 58.0355 21.7991C58.6239 18.5594 61.473 16.1003 64.8972 16.1003C68.2817 16.102 71.1027 18.5017 71.7391 21.6836Z" fill="white"/>
<path d="M125.059 18.1222C123.859 18.4919 122.7 18.9557 121.595 19.5069C120.063 15.2869 116.006 12.2716 111.241 12.2716C106.411 12.2716 102.307 15.3677 100.824 19.6769C99.7148 19.1356 98.553 18.6834 97.3464 18.3285C99.3701 12.6347 104.826 8.55823 111.239 8.55823C117.575 8.55988 122.974 12.539 125.059 18.1222Z" fill="white"/>
<path d="M132.862 17.1072C132.563 17.094 132.265 17.0891 131.963 17.0891C130.908 17.0891 129.865 17.1584 128.848 17.297C126.361 9.99073 119.418 4.7293 111.241 4.7293C102.972 4.7293 95.959 10.1079 93.5524 17.5446H93.5508C92.6408 17.434 91.7143 17.3779 90.7746 17.3779C90.3585 17.3779 89.9458 17.3894 89.5348 17.4109C92.1088 7.87493 100.852 0.855835 111.241 0.855835C121.518 0.855835 130.185 7.7264 132.862 17.1072Z" fill="white"/>
<path d="M118.054 21.6836C115.361 23.6921 113.138 26.275 111.577 29.2424H110.859C109.272 26.3113 107.041 23.7697 104.351 21.7991C104.939 18.5594 107.788 16.1003 111.212 16.1003C114.597 16.102 117.418 18.5017 118.054 21.6836Z" fill="white"/>
<path d="M171.374 18.1222C170.174 18.4919 169.015 18.9557 167.91 19.5069C166.378 15.2869 162.321 12.2716 157.556 12.2716C152.726 12.2716 148.622 15.3677 147.139 19.6769C146.03 19.1356 144.868 18.6834 143.661 18.3285C145.685 12.6347 151.141 8.55823 157.554 8.55823C163.89 8.55988 169.289 12.539 171.374 18.1222Z" fill="white"/>
<path d="M179.177 17.1072C178.879 17.094 178.58 17.0891 178.279 17.0891C177.223 17.0891 176.18 17.1584 175.163 17.297C172.676 9.99073 165.733 4.7293 157.556 4.7293C149.287 4.7293 142.274 10.1079 139.867 17.5446H139.866C138.956 17.434 138.029 17.3779 137.09 17.3779C136.674 17.3779 136.261 17.3894 135.85 17.4109C138.424 7.87493 147.167 0.855835 157.556 0.855835C167.833 0.855835 176.5 7.7264 179.177 17.1072Z" fill="white"/>
<path d="M164.369 21.6836C161.676 23.6921 159.453 26.275 157.892 29.2424H157.174C155.587 26.3113 153.356 23.7697 150.666 21.7991C151.254 18.5594 154.103 16.1003 157.527 16.1003C160.912 16.102 163.733 18.5017 164.369 21.6836Z" fill="white"/>
<path d="M217.689 18.1222C216.489 18.4919 215.33 18.9557 214.225 19.5069C212.693 15.2869 208.636 12.2716 203.871 12.2716C199.041 12.2716 194.937 15.3677 193.454 19.6769C192.345 19.1356 191.183 18.6834 189.977 18.3285C192 12.6347 197.457 8.55823 203.869 8.55823C210.206 8.55988 215.604 12.539 217.689 18.1222Z" fill="white"/>
<path d="M225.492 17.1072C225.194 17.094 224.895 17.0891 224.594 17.0891C223.538 17.0891 222.495 17.1584 221.478 17.297C218.992 9.99073 212.049 4.7293 203.871 4.7293C195.602 4.7293 188.589 10.1079 186.183 17.5446H186.181C185.271 17.434 184.345 17.3779 183.405 17.3779C182.989 17.3779 182.576 17.3894 182.165 17.4109C184.739 7.87493 193.482 0.855835 203.871 0.855835C214.149 0.855835 222.815 7.7264 225.492 17.1072Z" fill="white"/>
<path d="M210.684 21.6836C207.991 23.6921 205.768 26.275 204.207 29.2424H203.49C201.902 26.3113 199.671 23.7697 196.981 21.7991C197.569 18.5594 200.418 16.1003 203.843 16.1003C207.227 16.102 210.048 18.5017 210.684 21.6836Z" fill="white"/>
<path d="M264.004 18.1222C262.804 18.4919 261.645 18.9557 260.54 19.5069C259.008 15.2869 254.951 12.2716 250.186 12.2716C245.356 12.2716 241.252 15.3677 239.769 19.6769C238.66 19.1356 237.498 18.6834 236.292 18.3285C238.315 12.6347 243.772 8.55823 250.184 8.55823C256.521 8.55988 261.919 12.539 264.004 18.1222Z" fill="white"/>
<path d="M271.807 17.1072C271.509 17.094 271.21 17.0891 270.909 17.0891C269.853 17.0891 268.81 17.1584 267.793 17.297C265.307 9.99073 258.364 4.7293 250.186 4.7293C241.917 4.7293 234.904 10.1079 232.498 17.5446H232.496C231.586 17.434 230.66 17.3779 229.72 17.3779C229.304 17.3779 228.891 17.3894 228.48 17.4109C231.054 7.87493 239.797 0.855835 250.186 0.855835C260.464 0.855835 269.13 7.7264 271.807 17.1072Z" fill="white"/>
<path d="M257 21.6836C254.306 23.6921 252.084 26.275 250.522 29.2424H249.805C248.217 26.3113 245.986 23.7697 243.296 21.7991C243.884 18.5594 246.733 16.1003 250.158 16.1003C253.542 16.102 256.363 18.5017 257 21.6836Z" fill="white"/>
<path d="M310.319 18.1222C309.119 18.4919 307.961 18.9557 306.855 19.5069C305.324 15.2869 301.266 12.2716 296.501 12.2716C291.671 12.2716 287.567 15.3677 286.084 19.6769C284.975 19.1356 283.813 18.6834 282.607 18.3285C284.63 12.6347 290.087 8.55823 296.499 8.55823C302.836 8.55988 308.234 12.539 310.319 18.1222Z" fill="white"/>
<path d="M318.122 17.1072C317.824 17.094 317.526 17.0891 317.224 17.0891C316.168 17.0891 315.126 17.1584 314.108 17.297C311.622 9.99073 304.679 4.7293 296.501 4.7293C288.232 4.7293 281.219 10.1079 278.813 17.5446H278.811C277.901 17.434 276.975 17.3779 276.035 17.3779C275.619 17.3779 275.206 17.3894 274.795 17.4109C277.369 7.87493 286.112 0.855835 296.501 0.855835C306.779 0.855835 315.445 7.7264 318.122 17.1072Z" fill="white"/>
<path d="M303.315 21.6836C300.621 23.6921 298.399 26.275 296.837 29.2424H296.12C294.532 26.3113 292.301 23.7697 289.611 21.7991C290.199 18.5594 293.048 16.1003 296.473 16.1003C299.857 16.102 302.678 18.5017 303.315 21.6836Z" fill="white"/>
<path d="M356.634 18.1222C355.434 18.4919 354.276 18.9557 353.17 19.5069C351.639 15.2869 347.581 12.2716 342.816 12.2716C337.986 12.2716 333.883 15.3677 332.399 19.6769C331.29 19.1356 330.129 18.6834 328.922 18.3285C330.946 12.6347 336.402 8.55823 342.815 8.55823C349.151 8.55988 354.549 12.539 356.634 18.1222Z" fill="white"/>
<path d="M364.437 17.1072C364.139 17.094 363.841 17.0891 363.539 17.0891C362.483 17.0891 361.441 17.1584 360.423 17.297C357.937 9.99073 350.994 4.7293 342.816 4.7293C334.547 4.7293 327.535 10.1079 325.128 17.5446H325.126C324.216 17.434 323.29 17.3779 322.35 17.3779C321.934 17.3779 321.521 17.3894 321.11 17.4109C323.684 7.87493 332.427 0.855835 342.816 0.855835C353.094 0.855835 361.761 7.7264 364.437 17.1072Z" fill="white"/>
<path d="M349.63 21.6836C346.936 23.6921 344.714 26.275 343.153 29.2424H342.435C340.847 26.3113 338.616 23.7697 335.926 21.7991C336.515 18.5594 339.364 16.1003 342.788 16.1003C346.172 16.102 348.993 18.5017 349.63 21.6836Z" fill="white"/>
<path d="M402.949 18.1222C401.749 18.4919 400.591 18.9557 399.485 19.5069C397.954 15.2869 393.896 12.2716 389.131 12.2716C384.302 12.2716 380.198 15.3677 378.714 19.6769C377.605 19.1356 376.444 18.6834 375.237 18.3285C377.261 12.6347 382.717 8.55823 389.13 8.55823C395.466 8.55988 400.864 12.539 402.949 18.1222Z" fill="white"/>
<path d="M410.752 17.1072C410.454 17.094 410.156 17.0891 409.854 17.0891C408.798 17.0891 407.756 17.1584 406.738 17.297C404.252 9.99073 397.309 4.7293 389.131 4.7293C380.862 4.7293 373.85 10.1079 371.443 17.5446H371.441C370.531 17.434 369.605 17.3779 368.665 17.3779C368.249 17.3779 367.836 17.3894 367.425 17.4109C369.999 7.87493 378.742 0.855835 389.131 0.855835C399.409 0.855835 408.076 7.7264 410.752 17.1072Z" fill="white"/>
<path d="M395.945 21.6836C393.252 23.6921 391.029 26.275 389.468 29.2424H388.75C387.162 26.3113 384.931 23.7697 382.241 21.7991C382.83 18.5594 385.679 16.1003 389.103 16.1003C392.487 16.102 395.308 18.5017 395.945 21.6836Z" fill="white"/>
<path d="M449.264 18.1222C448.064 18.4919 446.906 18.9557 445.8 19.5069C444.269 15.2869 440.211 12.2716 435.446 12.2716C430.617 12.2716 426.513 15.3677 425.029 19.6769C423.921 19.1356 422.759 18.6834 421.552 18.3285C423.576 12.6347 429.032 8.55823 435.445 8.55823C441.781 8.55988 447.179 12.539 449.264 18.1222Z" fill="white"/>
<path d="M457.068 17.1072C456.769 17.094 456.471 17.0891 456.169 17.0891C455.113 17.0891 454.071 17.1584 453.053 17.297C450.567 9.99073 443.624 4.7293 435.446 4.7293C427.177 4.7293 420.165 10.1079 417.758 17.5446H417.757C416.847 17.434 415.92 17.3779 414.98 17.3779C414.564 17.3779 414.152 17.3894 413.741 17.4109C416.315 7.87493 425.058 0.855835 435.446 0.855835C445.724 0.855835 454.391 7.7264 457.068 17.1072Z" fill="white"/>
<path d="M442.26 21.6836C439.567 23.6921 437.344 26.275 435.783 29.2424H435.065C433.477 26.3113 431.246 23.7697 428.556 21.7991C429.145 18.5594 431.994 16.1003 435.418 16.1003C438.803 16.102 441.623 18.5017 442.26 21.6836Z" fill="white"/>
<path d="M495.58 18.1222C494.38 18.4919 493.221 18.9557 492.116 19.5069C490.584 15.2869 486.527 12.2716 481.762 12.2716C476.932 12.2716 472.828 15.3677 471.345 19.6769C470.236 19.1356 469.074 18.6834 467.867 18.3285C469.891 12.6347 475.347 8.55823 481.76 8.55823C488.096 8.55988 493.495 12.539 495.58 18.1222Z" fill="white"/>
<path d="M503.383 17.1072C503.084 17.094 502.786 17.0891 502.484 17.0891C501.429 17.0891 500.386 17.1584 499.368 17.297C496.882 9.99073 489.939 4.7293 481.761 4.7293C473.492 4.7293 466.48 10.1079 464.073 17.5446H464.072C463.162 17.434 462.235 17.3779 461.295 17.3779C460.879 17.3779 460.467 17.3894 460.056 17.4109C462.63 7.87493 471.373 0.855835 481.761 0.855835C492.039 0.855835 500.706 7.7264 503.383 17.1072Z" fill="white"/>
<path d="M488.575 21.6836C485.882 23.6921 483.659 26.275 482.098 29.2424H481.38C479.792 26.3113 477.561 23.7697 474.871 21.7991C475.46 18.5594 478.309 16.1003 481.733 16.1003C485.118 16.102 487.939 18.5017 488.575 21.6836Z" fill="white"/>
<path d="M541.895 18.1222C540.695 18.4919 539.536 18.9557 538.431 19.5069C536.899 15.2869 532.842 12.2716 528.077 12.2716C523.247 12.2716 519.143 15.3677 517.66 19.6769C516.551 19.1356 515.389 18.6834 514.182 18.3285C516.206 12.6347 521.662 8.55823 528.075 8.55823C534.411 8.55988 539.81 12.539 541.895 18.1222Z" fill="white"/>
<path d="M549.698 17.1072C549.399 17.094 549.101 17.0891 548.799 17.0891C547.744 17.0891 546.701 17.1584 545.683 17.297C543.197 9.99073 536.254 4.7293 528.077 4.7293C519.808 4.7293 512.795 10.1079 510.388 17.5446H510.387C509.477 17.434 508.55 17.3779 507.61 17.3779C507.194 17.3779 506.782 17.3894 506.371 17.4109C508.945 7.87493 517.688 0.855835 528.077 0.855835C538.354 0.855835 547.021 7.7264 549.698 17.1072Z" fill="white"/>
<path d="M534.89 21.6836C532.197 23.6921 529.974 26.275 528.413 29.2424H527.695C526.107 26.3113 523.877 23.7697 521.187 21.7991C521.775 18.5594 524.624 16.1003 528.048 16.1003C531.433 16.102 534.254 18.5017 534.89 21.6836Z" fill="white"/>
<path d="M588.21 18.1222C587.01 18.4919 585.851 18.9557 584.746 19.5069C583.214 15.2869 579.157 12.2716 574.392 12.2716C569.562 12.2716 565.458 15.3677 563.975 19.6769C562.866 19.1356 561.704 18.6834 560.497 18.3285C562.521 12.6347 567.977 8.55823 574.39 8.55823C580.726 8.55988 586.125 12.539 588.21 18.1222Z" fill="white"/>
<path d="M596.013 17.1072C595.714 17.094 595.416 17.0891 595.114 17.0891C594.059 17.0891 593.016 17.1584 591.999 17.297C589.512 9.99073 582.569 4.7293 574.392 4.7293C566.123 4.7293 559.11 10.1079 556.703 17.5446H556.702C555.792 17.434 554.865 17.3779 553.926 17.3779C553.51 17.3779 553.097 17.3894 552.686 17.4109C555.26 7.87493 564.003 0.855835 574.392 0.855835C584.669 0.855835 593.336 7.7264 596.013 17.1072Z" fill="white"/>
<path d="M581.205 21.6836C578.512 23.6921 576.289 26.275 574.728 29.2424H574.01C572.423 26.3113 570.192 23.7697 567.502 21.7991C568.09 18.5594 570.939 16.1003 574.363 16.1003C577.748 16.102 580.569 18.5017 581.205 21.6836Z" fill="white"/>
<path d="M634.525 18.1222C633.325 18.4919 632.166 18.9557 631.061 19.5069C629.529 15.2869 625.472 12.2716 620.707 12.2716C615.877 12.2716 611.773 15.3677 610.29 19.6769C609.181 19.1356 608.019 18.6834 606.813 18.3285C608.836 12.6347 614.293 8.55823 620.705 8.55823C627.042 8.55988 632.44 12.539 634.525 18.1222Z" fill="white"/>
<path d="M642.328 17.1072C642.03 17.094 641.731 17.0891 641.43 17.0891C640.374 17.0891 639.331 17.1584 638.314 17.297C635.828 9.99073 628.885 4.7293 620.707 4.7293C612.438 4.7293 605.425 10.1079 603.019 17.5446H603.017C602.107 17.434 601.181 17.3779 600.241 17.3779C599.825 17.3779 599.412 17.3894 599.001 17.4109C601.575 7.87493 610.318 0.855835 620.707 0.855835C630.985 0.855835 639.651 7.7264 642.328 17.1072Z" fill="white"/>
<path d="M627.52 21.6836C624.827 23.6921 622.604 26.275 621.043 29.2424H620.326C618.738 26.3113 616.507 23.7697 613.817 21.7991C614.405 18.5594 617.254 16.1003 620.679 16.1003C624.063 16.102 626.884 18.5017 627.52 21.6836Z" fill="white"/>
<path d="M680.84 18.1222C679.64 18.4919 678.481 18.9557 677.376 19.5069C675.844 15.2869 671.787 12.2716 667.022 12.2716C662.192 12.2716 658.088 15.3677 656.605 19.6769C655.496 19.1356 654.334 18.6834 653.128 18.3285C655.151 12.6347 660.608 8.55823 667.02 8.55823C673.357 8.55988 678.755 12.539 680.84 18.1222Z" fill="white"/>
<path d="M688.643 17.1072C688.345 17.094 688.047 17.0891 687.745 17.0891C686.689 17.0891 685.647 17.1584 684.629 17.297C682.143 9.99073 675.2 4.7293 667.022 4.7293C658.753 4.7293 651.74 10.1079 649.334 17.5446H649.332C648.422 17.434 647.496 17.3779 646.556 17.3779C646.14 17.3779 645.727 17.3894 645.316 17.4109C647.89 7.87493 656.633 0.855835 667.022 0.855835C677.3 0.855835 685.966 7.7264 688.643 17.1072Z" fill="white"/>
<path d="M673.836 21.6836C671.142 23.6921 668.92 26.275 667.358 29.2424H666.641C665.053 26.3113 662.822 23.7697 660.132 21.7991C660.72 18.5594 663.569 16.1003 666.994 16.1003C670.378 16.102 673.199 18.5017 673.836 21.6836Z" fill="white"/>
<path d="M727.155 18.1222C725.955 18.4919 724.796 18.9557 723.691 19.5069C722.159 15.2869 718.102 12.2716 713.337 12.2716C708.507 12.2716 704.403 15.3677 702.92 19.6769C701.811 19.1356 700.649 18.6834 699.443 18.3285C701.466 12.6347 706.923 8.55823 713.335 8.55823C719.672 8.55988 725.07 12.539 727.155 18.1222Z" fill="white"/>
<path d="M734.958 17.1072C734.66 17.094 734.361 17.0891 734.06 17.0891C733.004 17.0891 731.961 17.1584 730.944 17.297C728.458 9.99073 721.515 4.7293 713.337 4.7293C705.068 4.7293 698.055 10.1079 695.649 17.5446H695.647C694.737 17.434 693.811 17.3779 692.871 17.3779C692.455 17.3779 692.042 17.3894 691.631 17.4109C694.205 7.87493 702.948 0.855835 713.337 0.855835C723.615 0.855835 732.281 7.7264 734.958 17.1072Z" fill="white"/>
<path d="M720.151 21.6836C717.457 23.6921 715.235 26.275 713.673 29.2424H712.956C711.368 26.3113 709.137 23.7697 706.447 21.7991C707.035 18.5594 709.884 16.1003 713.309 16.1003C716.693 16.102 719.514 18.5017 720.151 21.6836Z" fill="white"/>
<path d="M773.47 18.1222C772.27 18.4919 771.112 18.9557 770.006 19.5069C768.475 15.2869 764.417 12.2716 759.652 12.2716C754.822 12.2716 750.719 15.3677 749.235 19.6769C748.126 19.1356 746.965 18.6834 745.758 18.3285C747.782 12.6347 753.238 8.55823 759.651 8.55823C765.987 8.55988 771.385 12.539 773.47 18.1222Z" fill="white"/>
<path d="M781.273 17.1072C780.975 17.094 780.677 17.0891 780.375 17.0891C779.319 17.0891 778.277 17.1584 777.259 17.297C774.773 9.99073 767.83 4.7293 759.652 4.7293C751.383 4.7293 744.371 10.1079 741.964 17.5446H741.962C741.052 17.434 740.126 17.3779 739.186 17.3779C738.77 17.3779 738.357 17.3894 737.946 17.4109C740.52 7.87493 749.263 0.855835 759.652 0.855835C769.93 0.855835 778.597 7.7264 781.273 17.1072Z" fill="white"/>
<path d="M766.466 21.6836C763.772 23.6921 761.55 26.275 759.989 29.2424H759.271C757.683 26.3113 755.452 23.7697 752.762 21.7991C753.35 18.5594 756.2 16.1003 759.624 16.1003C763.008 16.102 765.829 18.5017 766.466 21.6836Z" fill="white"/>
<path d="M819.785 18.1222C818.585 18.4919 817.427 18.9557 816.321 19.5069C814.79 15.2869 810.732 12.2716 805.967 12.2716C801.138 12.2716 797.034 15.3677 795.55 19.6769C794.441 19.1356 793.28 18.6834 792.073 18.3285C794.097 12.6347 799.553 8.55823 805.966 8.55823C812.302 8.55988 817.7 12.539 819.785 18.1222Z" fill="white"/>
<path d="M827.589 17.1072C827.29 17.094 826.992 17.0891 826.69 17.0891C825.634 17.0891 824.592 17.1584 823.574 17.297C821.088 9.99073 814.145 4.7293 805.967 4.7293C797.698 4.7293 790.686 10.1079 788.279 17.5446H788.277C787.368 17.434 786.441 17.3779 785.501 17.3779C785.085 17.3779 784.673 17.3894 784.261 17.4109C786.835 7.87493 795.578 0.855835 805.967 0.855835C816.245 0.855835 824.912 7.7264 827.589 17.1072Z" fill="white"/>
<path d="M812.781 21.6836C810.088 23.6921 807.865 26.275 806.304 29.2424H805.586C803.998 26.3113 801.767 23.7697 799.077 21.7991C799.666 18.5594 802.515 16.1003 805.939 16.1003C809.324 16.102 812.144 18.5017 812.781 21.6836Z" fill="white"/>
<path d="M866.101 18.1222C864.901 18.4919 863.742 18.9557 862.636 19.5069C861.105 15.2869 857.048 12.2716 852.282 12.2716C847.453 12.2716 843.349 15.3677 841.865 19.6769C840.757 19.1356 839.595 18.6834 838.388 18.3285C840.412 12.6347 845.868 8.55823 852.281 8.55823C858.617 8.55988 864.015 12.539 866.101 18.1222Z" fill="white"/>
<path d="M873.904 17.1072C873.605 17.094 873.307 17.0891 873.005 17.0891C871.949 17.0891 870.907 17.1584 869.889 17.297C867.403 9.99073 860.46 4.7293 852.282 4.7293C844.013 4.7293 837.001 10.1079 834.594 17.5446H834.593C833.683 17.434 832.756 17.3779 831.816 17.3779C831.4 17.3779 830.988 17.3894 830.577 17.4109C833.151 7.87493 841.894 0.855835 852.282 0.855835C862.56 0.855835 871.227 7.7264 873.904 17.1072Z" fill="white"/>
<path d="M859.096 21.6836C856.403 23.6921 854.18 26.275 852.619 29.2424H851.901C850.313 26.3113 848.082 23.7697 845.392 21.7991C845.981 18.5594 848.83 16.1003 852.254 16.1003C855.639 16.102 858.46 18.5017 859.096 21.6836Z" fill="white"/>
<path d="M912.416 18.1222C911.216 18.4919 910.057 18.9557 908.952 19.5069C907.42 15.2869 903.363 12.2716 898.598 12.2716C893.768 12.2716 889.664 15.3677 888.181 19.6769C887.072 19.1356 885.91 18.6834 884.703 18.3285C886.727 12.6347 892.183 8.55823 898.596 8.55823C904.932 8.55988 910.331 12.539 912.416 18.1222Z" fill="white"/>
<path d="M920.219 17.1072C919.92 17.094 919.622 17.0891 919.32 17.0891C918.265 17.0891 917.222 17.1584 916.204 17.297C913.718 9.99073 906.775 4.7293 898.597 4.7293C890.328 4.7293 883.316 10.1079 880.909 17.5446H880.908C879.998 17.434 879.071 17.3779 878.131 17.3779C877.715 17.3779 877.303 17.3894 876.892 17.4109C879.466 7.87493 888.209 0.855835 898.597 0.855835C908.875 0.855835 917.542 7.7264 920.219 17.1072Z" fill="white"/>
<path d="M905.411 21.6836C902.718 23.6921 900.495 26.275 898.934 29.2424H898.216C896.628 26.3113 894.397 23.7697 891.707 21.7991C892.296 18.5594 895.145 16.1003 898.569 16.1003C901.954 16.102 904.775 18.5017 905.411 21.6836Z" fill="white"/>
<path d="M958.731 18.1222C957.531 18.4919 956.372 18.9557 955.267 19.5069C953.735 15.2869 949.678 12.2716 944.913 12.2716C940.083 12.2716 935.979 15.3677 934.496 19.6769C933.387 19.1356 932.225 18.6834 931.018 18.3285C933.042 12.6347 938.498 8.55823 944.911 8.55823C951.247 8.55988 956.646 12.539 958.731 18.1222Z" fill="white"/>
<path d="M966.534 17.1072C966.235 17.094 965.937 17.0891 965.635 17.0891C964.58 17.0891 963.537 17.1584 962.52 17.297C960.033 9.99073 953.09 4.7293 944.913 4.7293C936.644 4.7293 929.631 10.1079 927.224 17.5446H927.223C926.313 17.434 925.386 17.3779 924.447 17.3779C924.031 17.3779 923.618 17.3894 923.207 17.4109C925.781 7.87493 934.524 0.855835 944.913 0.855835C955.19 0.855835 963.857 7.7264 966.534 17.1072Z" fill="white"/>
<path d="M951.726 21.6836C949.033 23.6921 946.81 26.275 945.249 29.2424H944.531C942.944 26.3113 940.713 23.7697 938.023 21.7991C938.611 18.5594 941.46 16.1003 944.884 16.1003C948.269 16.102 951.09 18.5017 951.726 21.6836Z" fill="white"/>
<path d="M1005.05 18.1222C1003.85 18.4919 1002.69 18.9557 1001.58 19.5069C1000.05 15.2869 995.993 12.2716 991.228 12.2716C986.398 12.2716 982.294 15.3677 980.811 19.6769C979.702 19.1356 978.54 18.6834 977.333 18.3285C979.357 12.6347 984.814 8.55823 991.226 8.55823C997.562 8.55988 1002.96 12.539 1005.05 18.1222Z" fill="white"/>
<path d="M1012.85 17.1072C1012.55 17.094 1012.25 17.0891 1011.95 17.0891C1010.89 17.0891 1009.85 17.1584 1008.83 17.297C1006.35 9.99073 999.405 4.7293 991.228 4.7293C982.959 4.7293 975.946 10.1079 973.539 17.5446H973.538C972.628 17.434 971.701 17.3779 970.762 17.3779C970.346 17.3779 969.933 17.3894 969.522 17.4109C972.096 7.87493 980.839 0.855835 991.228 0.855835C1001.51 0.855835 1010.17 7.7264 1012.85 17.1072Z" fill="white"/>
<path d="M998.041 21.6836C995.348 23.6921 993.125 26.275 991.564 29.2424H990.846C989.259 26.3113 987.028 23.7697 984.338 21.7991C984.926 18.5594 987.775 16.1003 991.199 16.1003C994.584 16.102 997.405 18.5017 998.041 21.6836Z" fill="white"/>
<path d="M1051.36 18.1222C1050.16 18.4919 1049 18.9557 1047.9 19.5069C1046.37 15.2869 1042.31 12.2716 1037.54 12.2716C1032.71 12.2716 1028.61 15.3677 1027.13 19.6769C1026.02 19.1356 1024.86 18.6834 1023.65 18.3285C1025.67 12.6347 1031.13 8.55823 1037.54 8.55823C1043.88 8.55988 1049.28 12.539 1051.36 18.1222Z" fill="white"/>
<path d="M1059.16 17.1072C1058.87 17.094 1058.57 17.0891 1058.27 17.0891C1057.21 17.0891 1056.17 17.1584 1055.15 17.297C1052.66 9.99073 1045.72 4.7293 1037.54 4.7293C1029.27 4.7293 1022.26 10.1079 1019.85 17.5446H1019.85C1018.94 17.434 1018.02 17.3779 1017.08 17.3779C1016.66 17.3779 1016.25 17.3894 1015.84 17.4109C1018.41 7.87493 1027.15 0.855835 1037.54 0.855835C1047.82 0.855835 1056.49 7.7264 1059.16 17.1072Z" fill="white"/>
<path d="M1044.36 21.6836C1041.66 23.6921 1039.44 26.275 1037.88 29.2424H1037.16C1035.57 26.3113 1033.34 23.7697 1030.65 21.7991C1031.24 18.5594 1034.09 16.1003 1037.51 16.1003C1040.9 16.102 1043.72 18.5017 1044.36 21.6836Z" fill="white"/>
<path d="M1097.68 18.1222C1096.48 18.4919 1095.32 18.9557 1094.21 19.5069C1092.68 15.2869 1088.62 12.2716 1083.86 12.2716C1079.03 12.2716 1074.92 15.3677 1073.44 19.6769C1072.33 19.1356 1071.17 18.6834 1069.96 18.3285C1071.99 12.6347 1077.44 8.55823 1083.86 8.55823C1090.19 8.55988 1095.59 12.539 1097.68 18.1222Z" fill="white"/>
<path d="M1105.48 17.1072C1105.18 17.094 1104.88 17.0891 1104.58 17.0891C1103.53 17.0891 1102.48 17.1584 1101.46 17.297C1098.98 9.99073 1092.04 4.7293 1083.86 4.7293C1075.59 4.7293 1068.58 10.1079 1066.17 17.5446H1066.17C1065.26 17.434 1064.33 17.3779 1063.39 17.3779C1062.98 17.3779 1062.56 17.3894 1062.15 17.4109C1064.73 7.87493 1073.47 0.855835 1083.86 0.855835C1094.14 0.855835 1102.8 7.7264 1105.48 17.1072Z" fill="white"/>
<path d="M1090.67 21.6836C1087.98 23.6921 1085.76 26.275 1084.19 29.2424H1083.48C1081.89 26.3113 1079.66 23.7697 1076.97 21.7991C1077.56 18.5594 1080.41 16.1003 1083.83 16.1003C1087.21 16.102 1090.04 18.5017 1090.67 21.6836Z" fill="white"/>
<path d="M1143.99 18.1222C1142.79 18.4919 1141.63 18.9557 1140.53 19.5069C1139 15.2869 1134.94 12.2716 1130.17 12.2716C1125.34 12.2716 1121.24 15.3677 1119.76 19.6769C1118.65 19.1356 1117.49 18.6834 1116.28 18.3285C1118.3 12.6347 1123.76 8.55823 1130.17 8.55823C1136.51 8.55988 1141.91 12.539 1143.99 18.1222Z" fill="white"/>
<path d="M1151.79 17.1072C1151.5 17.094 1151.2 17.0891 1150.9 17.0891C1149.84 17.0891 1148.8 17.1584 1147.78 17.297C1145.29 9.99073 1138.35 4.7293 1130.17 4.7293C1121.9 4.7293 1114.89 10.1079 1112.48 17.5446H1112.48C1111.57 17.434 1110.65 17.3779 1109.71 17.3779C1109.29 17.3779 1108.88 17.3894 1108.47 17.4109C1111.04 7.87493 1119.78 0.855835 1130.17 0.855835C1140.45 0.855835 1149.12 7.7264 1151.79 17.1072Z" fill="white"/>
<path d="M1136.99 21.6836C1134.29 23.6921 1132.07 26.275 1130.51 29.2424H1129.79C1128.2 26.3113 1125.97 23.7697 1123.28 21.7991C1123.87 18.5594 1126.72 16.1003 1130.14 16.1003C1133.53 16.102 1136.35 18.5017 1136.99 21.6836Z" fill="white"/>
<path d="M1190.31 18.1222C1189.11 18.4919 1187.95 18.9557 1186.84 19.5069C1185.31 15.2869 1181.25 12.2716 1176.49 12.2716C1171.66 12.2716 1167.55 15.3677 1166.07 19.6769C1164.96 19.1356 1163.8 18.6834 1162.59 18.3285C1164.62 12.6347 1170.07 8.55823 1176.49 8.55823C1182.82 8.55988 1188.22 12.539 1190.31 18.1222Z" fill="white"/>
<path d="M1198.11 17.1072C1197.81 17.094 1197.51 17.0891 1197.21 17.0891C1196.16 17.0891 1195.11 17.1584 1194.09 17.297C1191.61 9.99073 1184.67 4.7293 1176.49 4.7293C1168.22 4.7293 1161.21 10.1079 1158.8 17.5446H1158.8C1157.89 17.434 1156.96 17.3779 1156.02 17.3779C1155.61 17.3779 1155.19 17.3894 1154.78 17.4109C1157.36 7.87493 1166.1 0.855835 1176.49 0.855835C1186.77 0.855835 1195.43 7.7264 1198.11 17.1072Z" fill="white"/>
<path d="M1183.3 21.6836C1180.61 23.6921 1178.39 26.275 1176.82 29.2424H1176.11C1174.52 26.3113 1172.29 23.7697 1169.6 21.7991C1170.19 18.5594 1173.04 16.1003 1176.46 16.1003C1179.84 16.102 1182.67 18.5017 1183.3 21.6836Z" fill="white"/>
<path d="M1236.62 18.1222C1235.42 18.4919 1234.26 18.9557 1233.16 19.5069C1231.63 15.2869 1227.57 12.2716 1222.8 12.2716C1217.97 12.2716 1213.87 15.3677 1212.39 19.6769C1211.28 19.1356 1210.12 18.6834 1208.91 18.3285C1210.93 12.6347 1216.39 8.55823 1222.8 8.55823C1229.14 8.55988 1234.54 12.539 1236.62 18.1222Z" fill="white"/>
<path d="M1244.42 17.1072C1244.13 17.094 1243.83 17.0891 1243.53 17.0891C1242.47 17.0891 1241.43 17.1584 1240.41 17.297C1237.92 9.99073 1230.98 4.7293 1222.8 4.7293C1214.53 4.7293 1207.52 10.1079 1205.12 17.5446H1205.11C1204.2 17.434 1203.28 17.3779 1202.34 17.3779C1201.92 17.3779 1201.51 17.3894 1201.1 17.4109C1203.67 7.87493 1212.41 0.855835 1222.8 0.855835C1233.08 0.855835 1241.75 7.7264 1244.42 17.1072Z" fill="white"/>
<path d="M1229.62 21.6836C1226.92 23.6921 1224.7 26.275 1223.14 29.2424H1222.42C1220.83 26.3113 1218.6 23.7697 1215.91 21.7991C1216.5 18.5594 1219.35 16.1003 1222.77 16.1003C1226.16 16.102 1228.98 18.5017 1229.62 21.6836Z" fill="white"/>
<path d="M1282.94 18.1222C1281.74 18.4919 1280.58 18.9557 1279.47 19.5069C1277.94 15.2869 1273.88 12.2716 1269.12 12.2716C1264.29 12.2716 1260.18 15.3677 1258.7 19.6769C1257.59 19.1356 1256.43 18.6834 1255.22 18.3285C1257.25 12.6347 1262.7 8.55823 1269.12 8.55823C1275.45 8.55988 1280.85 12.539 1282.94 18.1222Z" fill="white"/>
<path d="M1290.74 17.1072C1290.44 17.094 1290.14 17.0891 1289.84 17.0891C1288.79 17.0891 1287.74 17.1584 1286.73 17.297C1284.24 9.99073 1277.3 4.7293 1269.12 4.7293C1260.85 4.7293 1253.84 10.1079 1251.43 17.5446H1251.43C1250.52 17.434 1249.59 17.3779 1248.65 17.3779C1248.24 17.3779 1247.82 17.3894 1247.41 17.4109C1249.99 7.87493 1258.73 0.855835 1269.12 0.855835C1279.4 0.855835 1288.06 7.7264 1290.74 17.1072Z" fill="white"/>
<path d="M1275.93 21.6836C1273.24 23.6921 1271.02 26.275 1269.45 29.2424H1268.74C1267.15 26.3113 1264.92 23.7697 1262.23 21.7991C1262.82 18.5594 1265.67 16.1003 1269.09 16.1003C1272.47 16.102 1275.3 18.5017 1275.93 21.6836Z" fill="white"/>
<path d="M1329.25 18.1222C1328.05 18.4919 1326.89 18.9557 1325.79 19.5069C1324.26 15.2869 1320.2 12.2716 1315.43 12.2716C1310.6 12.2716 1306.5 15.3677 1305.02 19.6769C1303.91 19.1356 1302.75 18.6834 1301.54 18.3285C1303.56 12.6347 1309.02 8.55823 1315.43 8.55823C1321.77 8.55988 1327.17 12.539 1329.25 18.1222Z" fill="white"/>
<path d="M1337.05 17.1072C1336.76 17.094 1336.46 17.0891 1336.16 17.0891C1335.1 17.0891 1334.06 17.1584 1333.04 17.297C1330.55 9.99073 1323.61 4.7293 1315.43 4.7293C1307.16 4.7293 1300.15 10.1079 1297.75 17.5446H1297.74C1296.83 17.434 1295.91 17.3779 1294.97 17.3779C1294.55 17.3779 1294.14 17.3894 1293.73 17.4109C1296.3 7.87493 1305.04 0.855835 1315.43 0.855835C1325.71 0.855835 1334.38 7.7264 1337.05 17.1072Z" fill="white"/>
<path d="M1322.25 21.6836C1319.55 23.6921 1317.33 26.275 1315.77 29.2424H1315.05C1313.46 26.3113 1311.23 23.7697 1308.54 21.7991C1309.13 18.5594 1311.98 16.1003 1315.41 16.1003C1318.79 16.102 1321.61 18.5017 1322.25 21.6836Z" fill="white"/>
<path d="M1375.57 18.1222C1374.37 18.4919 1373.21 18.9557 1372.1 19.5069C1370.57 15.2869 1366.51 12.2716 1361.75 12.2716C1356.92 12.2716 1352.82 15.3677 1351.33 19.6769C1350.22 19.1356 1349.06 18.6834 1347.85 18.3285C1349.88 12.6347 1355.33 8.55823 1361.75 8.55823C1368.08 8.55988 1373.48 12.539 1375.57 18.1222Z" fill="white"/>
<path d="M1383.37 17.1072C1383.07 17.094 1382.77 17.0891 1382.47 17.0891C1381.42 17.0891 1380.37 17.1584 1379.36 17.297C1376.87 9.99073 1369.93 4.7293 1361.75 4.7293C1353.48 4.7293 1346.47 10.1079 1344.06 17.5446H1344.06C1343.15 17.434 1342.22 17.3779 1341.28 17.3779C1340.87 17.3779 1340.45 17.3894 1340.04 17.4109C1342.62 7.87493 1351.36 0.855835 1361.75 0.855835C1372.03 0.855835 1380.69 7.7264 1383.37 17.1072Z" fill="white"/>
<path d="M1368.56 21.6836C1365.87 23.6921 1363.65 26.275 1362.08 29.2424H1361.37C1359.78 26.3113 1357.55 23.7697 1354.86 21.7991C1355.45 18.5594 1358.3 16.1003 1361.72 16.1003C1365.1 16.102 1367.93 18.5017 1368.56 21.6836Z" fill="white"/>
<path d="M1421.88 18.1222C1420.68 18.4919 1419.52 18.9557 1418.42 19.5069C1416.89 15.2869 1412.83 12.2716 1408.06 12.2716C1403.23 12.2716 1399.13 15.3677 1397.65 19.6769C1396.54 19.1356 1395.38 18.6834 1394.17 18.3285C1396.19 12.6347 1401.65 8.55823 1408.06 8.55823C1414.4 8.55988 1419.8 12.539 1421.88 18.1222Z" fill="white"/>
<path d="M1429.68 17.1072C1429.39 17.094 1429.09 17.0891 1428.79 17.0891C1427.73 17.0891 1426.69 17.1584 1425.67 17.297C1423.18 9.99073 1416.24 4.7293 1408.06 4.7293C1399.79 4.7293 1392.78 10.1079 1390.38 17.5446H1390.37C1389.46 17.434 1388.54 17.3779 1387.6 17.3779C1387.18 17.3779 1386.77 17.3894 1386.36 17.4109C1388.93 7.87493 1397.67 0.855835 1408.06 0.855835C1418.34 0.855835 1427.01 7.7264 1429.68 17.1072Z" fill="white"/>
<path d="M1414.88 21.6836C1412.18 23.6921 1409.96 26.275 1408.4 29.2424H1407.68C1406.09 26.3113 1403.86 23.7697 1401.17 21.7991C1401.76 18.5594 1404.61 16.1003 1408.04 16.1003C1411.42 16.102 1414.24 18.5017 1414.88 21.6836Z" fill="white"/>
<path d="M1476 17.1072C1475.7 17.094 1475.4 17.0891 1475.1 17.0891C1474.05 17.0891 1473 17.1584 1471.99 17.297C1469.5 9.99073 1462.56 4.7293 1454.38 4.7293C1446.11 4.7293 1439.1 10.1079 1436.69 17.5446H1436.69C1435.78 17.434 1434.85 17.3779 1433.91 17.3779C1433.5 17.3779 1433.08 17.3894 1432.67 17.4109C1435.25 7.87493 1443.99 0.855835 1454.38 0.855835C1464.66 0.855835 1473.32 7.7264 1476 17.1072Z" fill="white"/>
</svg>
